<svg xmlns="http://www.w3.org/2000/svg" viewBox="0 0 164 163"><defs><filter id="a" width="121.7%" x="-10.4%" filterUnits="objectBoundingBox"><feOffset dy="2" in="SourceAlpha" result="shadowOffsetOuter1"/><feGaussianBlur in="shadowOffsetOuter1" result="shadowBlurOuter1" stdDeviation="2"/><feColorMatrix in="shadowBlurOuter1" result="shadowMatrixOuter1" values="0 0 0 0 0 0 0 0 0 0 0 0 0 0 0 0 0 0 0.5 0"/><feMerge><feMergeNode in="shadowMatrixOuter1"/><feMergeNode in="SourceGraphic"/></feMerge></filter></defs><g fill="none" fill-rule="evenodd"><rect width="151" height="151" fill="#0EB29A" rx="20"/><g filter="url(#a)" transform="translate(44 37)"><path fill="#8D3E2B" d="M0 103.1v5s0 5 3.4 8.4c3.3 3.4 9.9 3.5 9.9 3.5H94V22.1H10a10 10 0 0 1-10-10v91z"/><path fill="#EDC55D" d="M10 20.2c-4.2 0-7.5-3.3-7.5-7.4V10c0-4 3.3-7.4 7.4-7.4H87c-2 3-2.6 6.1-2.1 9.3.5 3.3 2.7 6.1 4.8 8.2H9.9z"/><path fill="#AB6337" d="M89.8 20.3H10c-4.1 0-7.4-3.4-7.4-7.5V10C2.6 6 5.9 2.6 10 2.6h77A25.5 25.5 0 0 1 89.7 0H10A10 10 0 0 0 0 10.1v2.7a10 10 0 0 0 10 10.1h84s-2-1-4.2-2.6z"/><g transform="translate(17.7 38.6)"><path fill="#BDB9BA" d="m55.2 48.1 3.5-7L68 46l-3.5 7z"/><circle cx="31.2" cy="31.6" r="25.3" fill="#C0C3D2"/><path fill="#FFF" fill-rule="nonzero" d="M3.4 17a31.2 31.2 0 1 0 55.7 28.5A31.2 31.2 0 0 0 3.4 17zm49.7 25.4A24.5 24.5 0 1 1 9.4 20.1a24.5 24.5 0 0 1 43.7 22.3z"/><path fill="#27323B" d="M94.1 53.7c3.6 1.9 5 6.3 3.2 9.9l-1.6 3a7.4 7.4 0 0 1-9.9 3.2L67 60.2a7.3 7.3 0 0 1-3.2-9.8l1.5-3.1c1.9-3.6 6.3-5 10-3.2L94 53.7z"/><path fill="#878593" d="M26.8 47.8a19.6 19.6 0 0 1-8.6-26.3 19.5 19.5 0 0 1 9.7-9 19.5 19.5 0 1 0 10.8 37.2c-4 .6-8.1 0-12-2z"/></g></g></g></svg>