<svg xmlns="http://www.w3.org/2000/svg" viewBox="0 0 784 812"><g fill="none" fill-rule="nonzero"><path fill="#8D3E2B" d="M0 697.7v33.4s0 34.5 23.1 57.5C45.7 811.1 89.7 812 89.7 812H636V149.6H67.6A67.8 67.8 0 0 1 0 82v615.7Z"/><path fill="#EDC55D" d="M67.1 137A50.4 50.4 0 0 1 17 86.4V68.6A50.4 50.4 0 0 1 67.1 18H589a85.3 85.3 0 0 0-14.6 63c3.3 22.7 18.2 41.6 32.7 56H67.1Z"/><path fill="#AB6337" d="M607.8 137.3H67.6a50.6 50.6 0 0 1-50.2-50.9V68.5c0-28 22.5-50.8 50.2-50.8h521.6C594 12 599.8 6 606.5 0h-539A68.2 68.2 0 0 0 0 68.5v18A68.3 68.3 0 0 0 67.6 155H636s-13.3-6.3-28.2-17.7Z"/><g transform="translate(120 261)"><path fill="#BDB9BA" d="m373.3 325.6 24.1-47.1 62.3 31.9-24.1 47.1z"/><circle cx="211" cy="214" r="171" fill="#C0C3D2"/><path fill="#FFF" d="M23.2 115.2a211.5 211.5 0 1 0 376.6 192.6A211.5 211.5 0 0 0 23.2 115.2Zm336.2 172A166.1 166.1 0 1 1 63.6 135.8 166.1 166.1 0 0 1 359.4 287Z"/><path fill="#27323B" d="M637 363.5a49.6 49.6 0 0 1 21.6 66.6l-10.8 21a50 50 0 0 1-67 21.5l-127.7-65a49.6 49.6 0 0 1-21.7-66.7l10.8-21a50 50 0 0 1 67-21.5l127.7 65Z"/><path fill="#878593" d="M181 323.4A132.3 132.3 0 0 1 189 84 132.3 132.3 0 1 0 262 336.2c-26.8 4.2-55 .4-81-12.8Z"/></g></g></svg>