<svg version="1" xmlns="http://www.w3.org/2000/svg" width="1365.333" height="1365.333" viewBox="0 0 1024.000000 1024.000000"><path d="M236.5 106.6c-1.1.2-4.5.9-7.5 1.5-22.9 4.5-42.5 23.2-50.2 47.9l-2.3 7.5v684l2.3 8.9c4.3 17 13.8 33.3 24.4 41.7 6.5 5.2 20.7 12 30.8 14.8 19.3 5.3 5.7 5.1 302.8 5.1H812v-55.6c0-32.1.4-55.4.9-55.2.5.1 16.8 8.3 36.2 18.2 32.6 16.4 36 17.9 43.2 18.9 18.4 2.6 37.1-5.3 47.5-20.2 2.3-3.2 7.3-12.3 11.3-20.3 5.7-11.7 7.3-16 8.2-22.2 2.3-15.6-2.7-30.2-14.2-41.6-7.2-7.2 1.3-2.6-101.3-55L812 668.8V256h-4.9c-4.3 0-6-.7-14-6l-9.1-6-274.3-.2-274.2-.3-6.6-2.3c-16.2-5.4-28.1-17.6-33.2-33.7-1.9-6.1-2.2-9.2-2.2-24s.3-17.9 2.2-24.1c5.1-16 17.1-28.2 33.3-33.7l6.5-2.2 264.9-.3 264.9-.2 8.2-8.5 8.3-8.5-271.6.1c-149.5.1-272.6.3-273.7.5zm292 261.4c49.3 5.5 93.8 26.6 128.5 61 31 30.7 52 72.1 59.5 117 2.2 13.3 3 39.1 1.6 52.5-1.6 14.7-5.4 33-9.1 43.9-1.6 5-2.7 9.3-2.3 9.7.5.4 9.9 5.4 20.9 11.1l20.1 10.3-3.2 3.8c-3.8 4.4-17.5 29.8-20.1 37.4l-1.8 5.2-20.5-10.6-20.4-10.6-2.1 2.9c-33.4 46-82.8 76.4-139.6 85.9-13.4 2.3-39.2 3-52.5 1.6-50.1-5.5-94.5-26.4-129.5-61.1-31-30.7-52-72.1-59.5-117-2.3-13.4-3-39.2-1.6-52.5 5.5-50.1 26.4-94.5 61.1-129.5 34-34.3 80.7-56.2 131-61.3 7.8-.8 31.1-.6 39.5.3z"/><path d="M470.5 454.4c-49.3 14.1-85.3 53.1-95.2 103.4-2.3 11.8-2.3 35.6 0 47.5 5.9 29.7 21.1 56.6 42.7 75.4 33.5 29 78.3 39.7 120.5 28.8 17.8-4.6 17.7-5-1.2-5-13.8 0-18.7-.5-27.2-2.3-52.3-11.6-90.3-49.6-102.7-102.7-2.7-11.5-2.7-42.5 0-54 9.2-39.5 32.3-70.2 67.7-89.9 7.4-4.1 6.5-4.3-4.6-1.2z"/></svg>