<svg viewBox="0 0 784 812" version="1.1" xmlns="http://www.w3.org/2000/svg" xmlns:xlink="http://www.w3.org/1999/xlink">
    <g stroke="none" stroke-width="1" fill="none" fill-rule="evenodd">
        <g transform="translate(-176.000000, -106.000000)" fill-rule="nonzero">
            <g transform="translate(-193.000000, -192.000000)">
                <g transform="translate(369.000000, 298.000000)">
                    <path d="M0,697.714243 L0,731.101712 C0,731.101712 0,765.612003 23.1120648,788.629873 C45.6518308,811.075322 89.6748114,812 89.6748114,812 L636,812 L636,149.567519 L67.5532637,149.567519 C30.3868623,149.567519 0,119.152228 0,82 L0,697.714243 Z" fill="#8D3E2B"></path>
                    <path d="M67.139928,137 C39.4886658,137 17,114.296272 17,86.3780249 L17,68.5775016 C17,40.6814912 39.4886658,18 67.139928,18 L588.859363,18 C574.681487,38.6357096 571.258102,59.705036 574.296218,80.9189012 C577.554488,103.711576 592.458871,122.557227 607,136.988882 L67.139928,136.988882 L67.139928,137 Z" fill="#EDC55D"></path>
                    <path d="M607.802793,137.291141 L67.5544327,137.291141 C39.9075225,137.291141 17.422396,114.476321 17.422396,86.4214662 L17.422396,68.5338427 C17.422396,40.5013335 39.9075225,17.7088589 67.5544327,17.7088589 L589.191756,17.7088589 C594.067385,11.921358 599.76846,6.0333021 606.548116,0 L67.5544327,0 C30.3873882,0 0,30.8368774 0,68.5338427 L0,86.4214662 C0,124.129604 30.3873882,155 67.5544327,155 L636,155 C636,155 622.726842,148.720897 607.802793,137.291141 Z" fill="#AB6337"></path>
                </g>
                <g transform="translate(489.000000, 559.000000)">
                    <rect fill="#BDB9BA" transform="translate(416.500000, 318.000000) rotate(-62.896856) translate(-416.500000, -318.000000) " x="390" y="283" width="53" height="70"></rect>
                    <circle fill="#C0C3D2" cx="211" cy="214" r="171"></circle>
                    <path d="M23.2477076,115.189129 C-29.943223,219.164745 11.2354316,346.571487 115.20603,399.753974 C219.154607,452.936461 346.566209,411.777841 399.757139,307.791213 C452.93706,203.837619 411.769415,76.4308773 307.798818,23.2373791 C203.817209,-29.9340974 76.427628,11.2355341 23.2477076,115.189129 Z M359.360219,287.134827 C317.575995,368.813438 217.503056,401.152354 135.850409,359.388136 C54.1867503,317.601896 21.849395,217.535137 63.6336182,135.867537 C105.395821,54.2109478 205.46876,21.8720316 287.121408,63.6472608 C368.774055,105.42249 401.122421,205.478238 359.360219,287.134827 Z" fill="#FFFFFF"></path>
                    <path d="M636.913436,363.472256 C661.295416,375.891229 671.04163,405.869189 658.565599,430.13966 L647.821741,451.048932 C635.356673,475.30849 605.219055,484.999217 580.848038,472.60207 L453.07287,407.538875 C428.712816,395.119902 418.966602,365.109203 431.420707,340.871471 L442.164565,319.951286 C454.651559,295.669902 484.778214,286.001001 509.138268,298.40906 L636.913436,363.472256 Z" fill="#27323B"></path>
                    <path d="M181.01871,323.391889 C115.842421,290.101316 90.0460064,210.351851 123.369139,145.260835 C137.991528,116.727635 161.566401,95.7554575 188.899106,84 C148.513459,90.4130712 111.631438,115.193355 91.5712443,154.323023 C58.2370596,219.403002 84.0334744,299.152466 149.187658,332.465115 C185.782315,351.152429 227.007948,351.196581 262,336.173879 C235.242022,340.423504 206.980911,336.648512 181.01871,323.391889 Z" fill="#878593"></path>
                </g>
            </g>
        </g>
    </g>
</svg>
