<svg xmlns="http://www.w3.org/2000/svg" width="164" height="163" viewBox="0 0 164 163">
    <defs>
        <filter id="a" width="121.7%" x="-10.4%" filterUnits="objectBoundingBox">
            <feOffset dy="2" in="SourceAlpha" result="shadowOffsetOuter1"/>
            <feGaussianBlur in="shadowOffsetOuter1" result="shadowBlurOuter1" stdDeviation="2"/>
            <feColorMatrix in="shadowBlurOuter1" result="shadowMatrixOuter1" values="0 0 0 0 0 0 0 0 0 0 0 0 0 0 0 0 0 0 0.5 0"/>
            <feMerge>
                <feMergeNode in="shadowMatrixOuter1"/>
                <feMergeNode in="SourceGraphic"/>
            </feMerge>
        </filter>
    </defs>
    <g fill="none" fill-rule="evenodd">
        <rect width="151" height="151" fill="#0EB29A" rx="20"/>
        <g filter="url(#a)" transform="translate(44 37)">
            <path fill="#8D3E2B" d="M0 103.11v4.935s0 5.1 3.416 8.501c3.33 3.317 9.836 3.454 9.836 3.454H93.99V22.104H9.983C4.491 22.104 0 17.609 0 12.118v90.992z"/>
            <path fill="#EDC55D" d="M9.922 20.246c-4.086 0-7.41-3.355-7.41-7.48v-2.631c0-4.123 3.324-7.475 7.41-7.475h77.102c-2.096 3.05-2.602 6.163-2.153 9.298.482 3.369 2.684 6.154 4.833 8.287H9.922v.001z"/>
            <path fill="#AB6337" d="M89.823 20.29H9.983c-4.085 0-7.408-3.372-7.408-7.518v-2.644c0-4.143 3.323-7.51 7.408-7.51h77.09A25.48 25.48 0 0 1 89.638 0H9.983C4.491 0 0 4.557 0 10.128v2.644c0 5.572 4.49 10.134 9.983 10.134H93.99s-1.961-.928-4.167-2.617z"/>
            <g transform="translate(17.734 38.571)">
                <path fill="#BDB9BA" d="M55.163 48.125l3.569-6.973 9.208 4.713-3.568 6.973z"/>
                <circle cx="31.182" cy="31.626" r="25.271" fill="#C0C3D2"/>
                <path fill="#FFF" fill-rule="nonzero" d="M3.436 17.023c-7.861 15.366-1.776 34.194 13.59 42.054 15.361 7.86 34.19 1.777 42.051-13.59 7.86-15.363 1.776-34.192-13.59-42.053C30.122-4.424 11.296 1.66 3.437 17.023zm49.671 25.41c-6.175 12.071-20.964 16.85-33.03 10.679C8.006 46.936 3.228 32.148 9.403 20.079 15.576 8.01 30.364 3.232 42.432 9.406c12.067 6.174 16.847 20.96 10.675 33.028z"/>
                <path fill="#27323B" d="M94.125 53.715c3.603 1.835 5.044 6.266 3.2 9.852l-1.588 3.09c-1.842 3.586-6.296 5.018-9.897 3.186l-18.883-9.616c-3.6-1.835-5.04-6.27-3.2-9.852l1.588-3.092c1.845-3.588 6.297-5.017 9.897-3.183l18.883 9.615z"/>
                <path fill="#878593" d="M26.752 47.792c-9.632-4.92-13.445-16.706-8.52-26.325a19.508 19.508 0 0 1 9.684-9.053c-5.968.948-11.419 4.61-14.383 10.392-4.927 9.618-1.114 21.404 8.514 26.327 5.409 2.761 11.501 2.768 16.672.548-3.954.628-8.13.07-11.967-1.89z"/>
            </g>
        </g>
    </g>
</svg>
